HIERARCHY
ROOT Hips
{
	OFFSET 0.000000 0.000000 0.000000
	CHANNELS 6 Xposition Yposition Zposition Zrotation Yrotation Xrotation 
	JOINT LHipJoint
	{
		OFFSET 0.000000 0.000000 0.000000
		CHANNELS 3 Zrotation Yrotation Xrotation
		JOINT LeftUpLeg
		{
			OFFSET 1.363060 -1.794630 0.839290
			CHANNELS 3 Zrotation Yrotation Xrotation
			JOINT LeftLeg
			{
				OFFSET 2.448110 -6.726130 0.000000
				CHANNELS 3 Zrotation Yrotation Xrotation
				JOINT LeftFoot
				{
					OFFSET 2.562200 -7.039590 0.000000
					CHANNELS 3 Zrotation Yrotation Xrotation
					JOINT LeftToeBase
					{
						OFFSET 0.157640 -0.433110 2.322550
						CHANNELS 3 Zrotation Yrotation Xrotation
						End Site
						{
							OFFSET 0.000000 0.000000 0.000000
						}
					}
				}
			}
		}
	}
	JOINT RHipJoint
	{
		OFFSET 0.000000 0.000000 0.000000
		CHANNELS 3 Zrotation Yrotation Xrotation
		JOINT RightUpLeg
		{
			OFFSET -1.305520 -1.794630 0.839290
			CHANNELS 3 Zrotation Yrotation Xrotation
			JOINT RightLeg
			{
				OFFSET -2.542530 -6.985550 0.000000
				CHANNELS 3 Zrotation Yrotation Xrotation
				JOINT RightFoot
				{
					OFFSET -2.568260 -7.056230 0.000000
					CHANNELS 3 Zrotation Yrotation Xrotation
					JOINT RightToeBase
					{
						OFFSET -0.164730 -0.452590 2.363150
						CHANNELS 3 Zrotation Yrotation Xrotation
						End Site
						{
							OFFSET 0.000000 0.000000 0.000000
						}
					}
				}
			}
		}
	}
	JOINT LowerBack
	{
		OFFSET 0.000000 0.000000 0.000000
		CHANNELS 3 Zrotation Yrotation Xrotation
		JOINT Spine
		{
			OFFSET 0.028270 2.035590 -0.193380
			CHANNELS 3 Zrotation Yrotation Xrotation
			JOINT Spine1
			{
				OFFSET 0.056720 2.048850 -0.042750
				CHANNELS 3 Zrotation Yrotation Xrotation
				JOINT Neck
				{
					OFFSET 0.000000 0.000000 0.000000
					CHANNELS 3 Zrotation Yrotation Xrotation
					JOINT Neck1
					{
						OFFSET -0.054170 1.746240 0.172020
						CHANNELS 3 Zrotation Yrotation Xrotation
						JOINT Head
						{
							OFFSET 0.104070 1.761360 -0.123970
							CHANNELS 3 Zrotation Yrotation Xrotation
							End Site
							{
								OFFSET 0.000000 0.000000 0.000000
							}
						}
					}
				}
				JOINT LeftShoulder
				{
					OFFSET 0.000000 0.000000 0.000000
					CHANNELS 3 Zrotation Yrotation Xrotation
					JOINT LeftArm
					{
						OFFSET 3.362410 1.200890 -0.311210
						CHANNELS 3 Zrotation Yrotation Xrotation
						JOINT LeftForeArm
						{
							OFFSET 4.983000 -0.000000 -0.000000
							CHANNELS 3 Zrotation Yrotation Xrotation
							JOINT LeftHand
							{
								OFFSET 3.483560 -0.000000 -0.000000
								CHANNELS 3 Zrotation Yrotation Xrotation
								JOINT LeftFingerBase
								{
									OFFSET 0.000000 0.000000 0.000000
									CHANNELS 3 Zrotation Yrotation Xrotation
									JOINT LeftHandIndex1
									{
										OFFSET 0.715260 -0.000000 -0.000000
										CHANNELS 3 Zrotation Yrotation Xrotation
										End Site
										{
											OFFSET 0.000000 0.000000 0.000000
										}
									}
								}
								JOINT LThumb
								{
									OFFSET 0.000000 0.000000 0.000000
									CHANNELS 3 Zrotation Yrotation Xrotation
									End Site
									{
										OFFSET 0.000000 0.000000 0.000000
									}
								}
							}
						}
					}
				}
				JOINT RightShoulder
				{
					OFFSET 0.000000 0.000000 0.000000
					CHANNELS 3 Zrotation Yrotation Xrotation
					JOINT RightArm
					{
						OFFSET -3.136600 1.374050 -0.404650
						CHANNELS 3 Zrotation Yrotation Xrotation
						JOINT RightForeArm
						{
							OFFSET -5.241900 -0.000000 -0.000000
							CHANNELS 3 Zrotation Yrotation Xrotation
							JOINT RightHand
							{
								OFFSET -3.444170 -0.000000 -0.000000
								CHANNELS 3 Zrotation Yrotation Xrotation
								JOINT RightFingerBase
								{
									OFFSET 0.000000 0.000000 0.000000
									CHANNELS 3 Zrotation Yrotation Xrotation
									JOINT RightHandIndex1
									{
										OFFSET -0.622530 -0.000000 -0.000000
										CHANNELS 3 Zrotation Yrotation Xrotation
										End Site
										{
											OFFSET 0.000000 0.000000 0.000000
										}
									}
								}
								JOINT RThumb
								{
									OFFSET 0.000000 0.000000 0.000000
									CHANNELS 3 Zrotation Yrotation Xrotation
									End Site
									{
										OFFSET 0.000000 0.000000 0.000000
									}
								}
							}
						}
					}
				}
			}
		}
	}
}
MOTION
Frames: 5
Frame Time: 0.008333
2.843172 16.717221 17.235727 173.106398 -5.972109 -144.649328 23.833361 9.986765 2.894386 -22.389077 -46.885791 -48.738651 11.525096 20.724357 71.419085 3.874929 -14.315856 -57.375936 6.730400 -15.100600 -47.847000 -34.053437 -12.967360 10.953895 34.593942 43.497831 -44.383414 -7.056828 -11.149716 27.271757 -5.398416 -2.540711 -50.833394 -0.368800 3.900600 -10.797300 -2.327098 -0.890880 -27.705267 -10.337224 -4.956923 10.953390 2.993501 -3.786726 11.214194 -11.902683 -6.029246 -6.419115 13.598791 -9.731688 45.377114 1.368800 -0.844900 7.164100 20.864817 -2.210943 1.502139 -105.064953 -5.624694 15.357378 23.066368 -22.639567 -3.031515 0.741257 -0.249427 4.476285 22.944231 -14.091527 -5.620300 -7.125000 0.000000 0.000000 -3.580700 14.968200 2.539400 -9.640936 3.445799 1.669669 105.270106 -5.368037 -0.859670 -25.255929 33.606454 -5.089260 0.031678 -4.466279 -5.285632 -10.828506 -57.882751 8.465699 7.125000 0.000000 0.000000 69.062200 -75.280600 -54.276400 
2.878664 16.720091 17.207410 173.110568 -5.812041 -144.661109 23.930870 9.983898 2.986747 -22.551959 -46.593092 -48.486642 11.538621 20.734657 71.162752 4.105115 -13.600220 -57.579966 7.192100 -15.491600 -49.597200 -33.996221 -12.927238 11.015038 34.627367 43.613560 -44.401976 -7.021265 -11.152367 27.281985 -5.361334 -2.395658 -50.833585 -0.350300 3.803000 -10.523100 -2.465910 -1.072747 -28.326780 -9.820069 -5.037114 11.696606 2.768559 -3.842750 11.382632 -11.681068 -5.890785 -6.632062 12.902062 -9.247383 45.156055 1.304100 -0.736900 7.186900 20.807188 -2.178308 1.448462 -105.114865 -5.708521 14.935027 23.098297 -22.765071 -3.046347 0.743873 -0.240699 3.961141 22.745361 -14.200354 -5.608100 -7.125000 0.000000 0.000000 -3.722400 14.871200 2.648100 -9.828548 3.419931 1.614722 105.324773 -5.088464 -0.637017 -25.120306 33.501967 -5.042137 0.007448 -4.461590 -5.121532 -10.949130 -57.399319 8.502401 7.125000 0.000000 0.000000 67.256700 -75.186400 -52.515700 
2.914060 16.721813 17.179763 173.033906 -5.765415 -144.579132 24.015219 10.002031 3.010176 -22.613360 -46.471760 -48.345999 11.447069 20.693120 70.943600 3.980709 -13.886042 -57.468509 7.182700 -15.483800 -49.561900 -33.981901 -12.912624 11.014112 34.725336 43.580138 -44.344544 -7.020171 -11.128400 27.198846 -5.347069 -2.365359 -50.808144 -0.356500 3.835800 -10.615300 -2.618860 -1.242310 -28.446946 -9.408517 -5.185287 11.598551 2.716800 -3.905517 11.619290 -11.420791 -5.582379 -6.188293 12.339121 -8.686683 44.014127 1.243800 -0.643200 6.997800 20.683347 -2.259941 1.412614 -105.229205 -5.692753 14.549944 23.134089 -22.817027 -3.057263 0.753758 -0.235831 3.970353 22.919154 -14.133756 -5.630900 -7.125000 0.000000 0.000000 -3.607300 14.916500 2.562400 -9.938242 3.423960 1.583362 105.261936 -4.991366 -0.460420 -25.059340 33.389963 -5.012852 0.005855 -4.471402 -4.970561 -10.818380 -57.502057 8.414600 7.125000 0.000000 0.000000 67.641400 -75.167500 -52.846400 
2.947543 16.721909 17.147428 172.870001 -5.700536 -144.684216 24.093605 9.948064 3.065063 -22.825112 -46.453607 -47.930727 11.194521 20.599427 70.654595 3.413941 -15.378360 -56.997844 6.534600 -14.927100 -47.091200 -34.153098 -12.860001 11.008340 35.093999 43.528185 -43.866671 -7.034551 -11.070557 27.007194 -5.361339 -2.420027 -50.825354 -0.356300 3.835100 -10.613100 -2.426483 -1.203160 -28.648345 -9.786927 -5.179016 12.220754 2.604886 -3.935702 11.334309 -11.579802 -6.021327 -7.271479 12.693149 -9.266934 45.829303 1.267900 -0.729700 7.354700 20.829746 -2.090282 1.448932 -105.213082 -5.586790 14.377263 23.139342 -22.919467 -3.068415 0.757746 -0.237041 4.018695 23.085365 -14.023967 -5.632900 -7.125000 0.000000 0.000000 -3.490900 15.016000 2.471900 -9.879432 3.411685 1.600763 105.427540 -4.917558 -0.425500 -24.869214 33.265974 -4.946782 -0.013622 -4.480119 -4.603180 -10.572488 -57.698891 8.241700 7.125000 0.000000 0.000000 68.433300 -75.131600 -53.532700 
2.979687 16.724205 17.114806 172.843046 -5.608058 -144.852893 24.274743 9.919918 3.174400 -23.056278 -46.401722 -47.462064 10.932298 20.507749 70.395546 2.780328 -17.009465 -56.482350 5.733900 -14.165500 -43.904400 -34.251732 -12.736290 11.030254 35.509067 43.543320 -43.328172 -7.035039 -10.981875 26.708176 -5.366677 -2.430087 -50.861243 -0.351600 3.809500 -10.541300 -2.563657 -1.429478 -28.993515 -9.206529 -5.285644 13.203364 2.393970 -3.987770 11.135069 -11.469542 -5.900892 -7.773249 12.292646 -8.902006 45.551767 1.241100 -0.649200 7.376300 20.767707 -1.986508 1.375093 -105.351877 -5.706966 13.883546 23.119811 -23.034652 -3.068904 0.751105 -0.239853 4.004627 22.940399 -14.073384 -5.612000 -7.125000 0.000000 0.000000 -3.587900 14.983300 2.543400 -10.050539 3.316199 1.521440 105.429599 -4.629127 -0.288574 -24.666662 33.106293 -4.871409 -0.039581 -4.477523 -4.229692 -10.389718 -57.274804 8.051900 7.125000 0.000000 0.000000 66.982400 -74.938900 -51.993700 
